<svg xmlns="http://www.w3.org/2000/svg" viewBox="0 0 71.07 50.47"><defs><style>.a{fill:#fff;}</style></defs><title>c-diamonds</title><path class="a" d="M67.79,28.36,64.63,25.2,67.79,22,71,25.2ZM65.35,25.2l2.44,2.44,2.44-2.44-2.44-2.44Z"/><path class="a" d="M3.44,28.36.28,25.2,3.44,22,6.6,25.2ZM1,25.2l2.44,2.44L5.88,25.2,3.44,22.76Z"/><path class="a" d="M47,37a.33.33,0,0,0-.44.19A11.52,11.52,0,0,1,36,43.85a10.31,10.31,0,0,1-4.49-1v-3a7.68,7.68,0,0,0,4.28,1.34c5.06,0,8.37-5.28,8.51-5.5a.34.34,0,0,0-.11-.47.33.33,0,0,0-.46.11s-3.26,5.18-7.94,5.18A7.17,7.17,0,0,1,31.5,39V34.74A5.28,5.28,0,0,0,35.69,37c3.22,0,5.31-3.18,5.4-3.32a.34.34,0,0,0-.1-.47.35.35,0,0,0-.47.1s-2,3-4.83,3c-2.66,0-4-2.59-4.19-2.89V19c.15-.29,1.52-2.88,4.19-2.88,2.85,0,4.81,3,4.83,3a.32.32,0,0,0,.28.15.41.41,0,0,0,.19-.05.34.34,0,0,0,.1-.47c-.09-.14-2.18-3.32-5.4-3.32a5.25,5.25,0,0,0-4.19,2.29V13.44a7.1,7.1,0,0,1,4.28-1.51c4.67,0,7.9,5.13,7.94,5.18a.33.33,0,0,0,.28.16.35.35,0,0,0,.18-.05.34.34,0,0,0,.11-.47c-.14-.23-3.45-5.5-8.51-5.5a7.68,7.68,0,0,0-4.28,1.34v-3a10.31,10.31,0,0,1,4.49-1,11.55,11.55,0,0,1,10.59,6.63.34.34,0,0,0,.44.19.33.33,0,0,0,.19-.44A12.22,12.22,0,0,0,36,7.93c-7.83,0-11.13,7.68-11.16,7.75v.58h0V36.64l0,.13A14.91,14.91,0,0,0,27.76,41v0h0A11.34,11.34,0,0,0,36,44.53a12.22,12.22,0,0,0,11.22-7.06A.33.33,0,0,0,47,37Zm-16.2,5.45a12.07,12.07,0,0,1-2.38-1.8V36.82a12.27,12.27,0,0,0,2.38,2.55Zm0-4a11.78,11.78,0,0,1-2.38-2.93V16.92A11.78,11.78,0,0,1,30.82,14Zm0-25.39a12.54,12.54,0,0,0-2.38,2.56V11.78A12.07,12.07,0,0,1,30.82,10ZM25.48,36.57V15.89a14.38,14.38,0,0,1,2.28-3.41V40A14.2,14.2,0,0,1,25.48,36.57Z"/></svg>